<svg xmlns="http://www.w3.org/2000/svg" width="48" height="28" viewBox="0 0 48 28" shape-rendering="crispEdges">
  <g id="induction-fork">
    <polygon fill="#bfbfbf" points="19,1 22,1 22,9 20,9 20,15 18,15 18,6 19,6"/>
    <polygon fill="#bfbfbf" points="26,1 29,1 29,6 30,6 30,15 28,15 28,9 26,9"/>
    <rect fill="#ffffff" x="20" y="1" width="1" height="7"/>
    <rect fill="#ffffff" x="27" y="1" width="1" height="7"/>
    <polygon fill="#858585" points="20,10 22,10 22,15 26,15 26,10 28,10 28,17 26,17 26,19 22,19 22,17 20,17"/>
    <rect fill="#dfdfdf" x="23" y="5" width="2" height="7"/>
    <rect fill="#ffffff" x="23" y="5" width="2" height="2"/>
    <rect fill="#bfbfbf" x="10" y="20" width="5" height="1"/>
    <rect fill="#bfbfbf" x="33" y="20" width="5" height="1"/>
  </g>
</svg>
